<svg viewBox="0 0 660 520" xmlns="http://www.w3.org/2000/svg" font-family="'Space Mono', monospace">

  <!-- ROW: Capa 7 -->
  <text x="48" y="22" text-anchor="end" fill="#6b6b8a" font-size="10">Capa 7</text>
  <rect x="54" y="8" width="120" height="24" fill="rgba(255,107,157,0.08)" stroke="#ff6b9d" stroke-width="1" stroke-dasharray="3,3"/>
  <text x="114" y="24" text-anchor="middle" fill="#aaa" font-size="10">DATOS</text>
  <!-- arrow -->
  <text x="114" y="46" text-anchor="middle" fill="#00ff9f" font-size="13">↓</text>

  <!-- ROW: Capa 6 -->
  <text x="48" y="72" text-anchor="end" fill="#6b6b8a" font-size="10">Capa 6</text>
  <rect x="54" y="58" width="28" height="24" fill="#ff6b9d"/>
  <text x="68" y="74" text-anchor="middle" fill="#000" font-size="9" font-weight="700">H7</text>
  <rect x="84" y="58" width="120" height="24" fill="rgba(255,107,157,0.08)" stroke="#ff6b9d" stroke-width="1" stroke-dasharray="3,3"/>
  <text x="144" y="74" text-anchor="middle" fill="#aaa" font-size="10">DATOS</text>
  <!-- arrow -->
  <text x="144" y="96" text-anchor="middle" fill="#00ff9f" font-size="13">↓</text>

  <!-- ROW: Capa 5 -->
  <text x="48" y="122" text-anchor="end" fill="#6b6b8a" font-size="10">Capa 5</text>
  <rect x="54" y="108" width="28" height="24" fill="#ff6b9d"/>
  <text x="68" y="124" text-anchor="middle" fill="#000" font-size="9" font-weight="700">H7</text>
  <rect x="84" y="108" width="28" height="24" fill="#ff9f43"/>
  <text x="98" y="124" text-anchor="middle" fill="#000" font-size="9" font-weight="700">H6</text>
  <rect x="114" y="108" width="120" height="24" fill="rgba(255,107,157,0.08)" stroke="#ff6b9d" stroke-width="1" stroke-dasharray="3,3"/>
  <text x="174" y="124" text-anchor="middle" fill="#aaa" font-size="10">DATOS</text>
  <!-- arrow -->
  <text x="174" y="146" text-anchor="middle" fill="#00ff9f" font-size="13">↓</text>

  <!-- ROW: Capa 4 -->
  <text x="48" y="172" text-anchor="end" fill="#6b6b8a" font-size="10">Capa 4</text>
  <rect x="54" y="158" width="28" height="24" fill="#ff6b9d"/>
  <text x="68" y="174" text-anchor="middle" fill="#000" font-size="9" font-weight="700">H7</text>
  <rect x="84" y="158" width="28" height="24" fill="#ff9f43"/>
  <text x="98" y="174" text-anchor="middle" fill="#000" font-size="9" font-weight="700">H6</text>
  <rect x="114" y="158" width="28" height="24" fill="#ffd93d"/>
  <text x="128" y="174" text-anchor="middle" fill="#000" font-size="9" font-weight="700">H5</text>
  <rect x="144" y="158" width="120" height="24" fill="rgba(255,107,157,0.08)" stroke="#ff6b9d" stroke-width="1" stroke-dasharray="3,3"/>
  <text x="204" y="174" text-anchor="middle" fill="#aaa" font-size="10">DATOS</text>
  <!-- arrow -->
  <text x="204" y="196" text-anchor="middle" fill="#00ff9f" font-size="13">↓</text>

  <!-- ROW: Capa 3 -->
  <text x="48" y="222" text-anchor="end" fill="#6b6b8a" font-size="10">Capa 3</text>
  <rect x="54" y="208" width="28" height="24" fill="#ff6b9d"/>
  <text x="68" y="224" text-anchor="middle" fill="#000" font-size="9" font-weight="700">H7</text>
  <rect x="84" y="208" width="28" height="24" fill="#ff9f43"/>
  <text x="98" y="224" text-anchor="middle" fill="#000" font-size="9" font-weight="700">H6</text>
  <rect x="114" y="208" width="28" height="24" fill="#ffd93d"/>
  <text x="128" y="224" text-anchor="middle" fill="#000" font-size="9" font-weight="700">H5</text>
  <rect x="144" y="208" width="28" height="24" fill="#6bcb77"/>
  <text x="158" y="224" text-anchor="middle" fill="#000" font-size="9" font-weight="700">H4</text>
  <rect x="174" y="208" width="120" height="24" fill="rgba(255,107,157,0.08)" stroke="#ff6b9d" stroke-width="1" stroke-dasharray="3,3"/>
  <text x="234" y="224" text-anchor="middle" fill="#aaa" font-size="10">DATOS</text>
  <!-- arrow -->
  <text x="234" y="246" text-anchor="middle" fill="#00ff9f" font-size="13">↓</text>

  <!-- ROW: Capa 2 -->
  <text x="48" y="272" text-anchor="end" fill="#6b6b8a" font-size="10">Capa 2</text>
  <rect x="54" y="258" width="28" height="24" fill="#ff6b9d"/>
  <text x="68" y="274" text-anchor="middle" fill="#000" font-size="9" font-weight="700">H7</text>
  <rect x="84" y="258" width="28" height="24" fill="#ff9f43"/>
  <text x="98" y="274" text-anchor="middle" fill="#000" font-size="9" font-weight="700">H6</text>
  <rect x="114" y="258" width="28" height="24" fill="#ffd93d"/>
  <text x="128" y="274" text-anchor="middle" fill="#000" font-size="9" font-weight="700">H5</text>
  <rect x="144" y="258" width="28" height="24" fill="#6bcb77"/>
  <text x="158" y="274" text-anchor="middle" fill="#000" font-size="9" font-weight="700">H4</text>
  <rect x="174" y="258" width="28" height="24" fill="#4d96ff"/>
  <text x="188" y="274" text-anchor="middle" fill="#000" font-size="9" font-weight="700">H3</text>
  <rect x="204" y="258" width="120" height="24" fill="rgba(255,107,157,0.08)" stroke="#ff6b9d" stroke-width="1" stroke-dasharray="3,3"/>
  <text x="264" y="274" text-anchor="middle" fill="#aaa" font-size="10">DATOS</text>
  <rect x="326" y="258" width="30" height="24" fill="rgba(199,125,255,0.3)" stroke="#c77dff" stroke-width="1"/>
  <text x="341" y="274" text-anchor="middle" fill="#c77dff" font-size="9" font-weight="700">FCS</text>
  <!-- arrow -->
  <text x="200" y="296" text-anchor="middle" fill="#00ff9f" font-size="13">↓</text>

  <!-- ROW: Capa 1 -->
  <text x="48" y="322" text-anchor="end" fill="#6b6b8a" font-size="10">Capa 1</text>
  <rect x="54" y="308" width="28" height="24" fill="#ff6b9d"/>
  <text x="68" y="324" text-anchor="middle" fill="#000" font-size="9" font-weight="700">H7</text>
  <rect x="84" y="308" width="28" height="24" fill="#ff9f43"/>
  <text x="98" y="324" text-anchor="middle" fill="#000" font-size="9" font-weight="700">H6</text>
  <rect x="114" y="308" width="28" height="24" fill="#ffd93d"/>
  <text x="128" y="324" text-anchor="middle" fill="#000" font-size="9" font-weight="700">H5</text>
  <rect x="144" y="308" width="28" height="24" fill="#6bcb77"/>
  <text x="158" y="324" text-anchor="middle" fill="#000" font-size="9" font-weight="700">H4</text>
  <rect x="174" y="308" width="28" height="24" fill="#4d96ff"/>
  <text x="188" y="324" text-anchor="middle" fill="#000" font-size="9" font-weight="700">H3</text>
  <rect x="204" y="308" width="28" height="24" fill="#c77dff"/>
  <text x="218" y="324" text-anchor="middle" fill="#000" font-size="9" font-weight="700">H2</text>
  <rect x="234" y="308" width="220" height="24" fill="rgba(255,107,107,0.08)" stroke="#ff6b6b" stroke-width="1" stroke-dasharray="3,3"/>
  <text x="344" y="324" text-anchor="middle" fill="#ff6b6b" font-size="9">01001000 01100101 01101100 01101100</text>

  <!-- LEYENDA -->
  <text x="54" y="375" fill="#6b6b8a" font-size="9" letter-spacing="2">LEYENDA</text>
  <rect x="54" y="385" width="16" height="14" fill="#ff6b9d"/>
  <text x="76" y="396" fill="#aaa" font-size="9">Capa 7 — Aplicación</text>
  <rect x="200" y="385" width="16" height="14" fill="#ff9f43"/>
  <text x="222" y="396" fill="#aaa" font-size="9">Capa 6 — Presentación</text>
  <rect x="380" y="385" width="16" height="14" fill="#ffd93d"/>
  <text x="402" y="396" fill="#aaa" font-size="9">Capa 5 — Sesión</text>

  <rect x="54" y="408" width="16" height="14" fill="#6bcb77"/>
  <text x="76" y="419" fill="#aaa" font-size="9">Capa 4 — Transporte</text>
  <rect x="200" y="408" width="16" height="14" fill="#4d96ff"/>
  <text x="222" y="419" fill="#aaa" font-size="9">Capa 3 — Red</text>
  <rect x="380" y="408" width="16" height="14" fill="#c77dff"/>
  <text x="402" y="419" fill="#aaa" font-size="9">Capa 2 — Enlace</text>

  <line x1="54" y1="432" x2="660" y2="432" stroke="#1e1e2e" stroke-width="1"/>
  <text x="54" y="448" fill="#6b6b8a" font-size="9">Hx = Cabecera añadida por cada capa</text>
  <text x="54" y="464" fill="#6b6b8a" font-size="9">FCS = Frame Check Sequence — verificación de errores (Capa 2)</text>
  <text x="54" y="480" fill="#6b6b8a" font-size="9">Capa 1 transmite bits en bruto — no añade cabecera, convierte a señal eléctrica</text>

</svg>
