<svg viewBox="0 0 700 160" xmlns="http://www.w3.org/2000/svg" font-family="'JetBrains Mono', monospace">
  <rect width="700" height="160" fill="#0a0a0f"/>

  <!-- absolute path -->
  <rect x="20" y="16" width="320" height="124" rx="4" fill="#12121a" stroke="#4d96ff" stroke-width="1.5"/>
  <rect x="20" y="16" width="320" height="5" fill="#4d96ff"/>
  <text x="180" y="38" text-anchor="middle" fill="#4d96ff" font-size="11" font-weight="700">RUTA ABSOLUTA</text>
  <text x="180" y="54" text-anchor="middle" fill="#6b6b8a" font-size="9">empieza siempre desde / · independiente del lugar</text>

  <rect x="36" y="64" width="288" height="20" rx="2" fill="#0a0a0f"/>
  <text x="44" y="78" fill="#4d96ff" font-size="10">/home/ubuntu/Documents/notas.txt</text>
  <rect x="36" y="90" width="288" height="20" rx="2" fill="#0a0a0f"/>
  <text x="44" y="104" fill="#4d96ff" font-size="10">/etc/nginx/nginx.conf</text>
  <rect x="36" y="116" width="288" height="20" rx="2" fill="#0a0a0f"/>
  <text x="44" y="130" fill="#4d96ff" font-size="10">/var/log/auth.log</text>

  <!-- relative path -->
  <rect x="360" y="16" width="320" height="124" rx="4" fill="#12121a" stroke="#ffd93d" stroke-width="1.5"/>
  <rect x="360" y="16" width="320" height="5" fill="#ffd93d"/>
  <text x="520" y="38" text-anchor="middle" fill="#ffd93d" font-size="11" font-weight="700">RUTA RELATIVA</text>
  <text x="520" y="54" text-anchor="middle" fill="#6b6b8a" font-size="9">desde el directorio actual · cambia según donde estés</text>

  <rect x="376" y="64" width="288" height="20" rx="2" fill="#0a0a0f"/>
  <text x="384" y="78" fill="#ffd93d" font-size="10">Documents/notas.txt   (desde ~)</text>
  <rect x="376" y="90" width="288" height="20" rx="2" fill="#0a0a0f"/>
  <text x="384" y="104" fill="#ffd93d" font-size="10">../otro_usuario/archivo</text>
  <rect x="376" y="116" width="288" height="20" rx="2" fill="#0a0a0f"/>
  <text x="384" y="130" fill="#ffd93d" font-size="10">./script.sh   (aquí mismo)</text>
</svg>
