<svg viewBox="0 0 700 300" xmlns="http://www.w3.org/2000/svg" font-family="'JetBrains Mono', monospace">
  <rect width="700" height="300" fill="#0a0a0f"/>
  <text x="24" y="28" fill="#6b6b8a" font-size="10" letter-spacing="2">// MATRIZ DE RIESGO</text>

  <text x="58" y="70" fill="#6b6b8a" font-size="9">impacto</text>
  <text x="610" y="260" fill="#6b6b8a" font-size="9">probabilidad</text>

  <rect x="100" y="60" width="500" height="180" fill="#12121a" stroke="#1e1e2e" stroke-width="1"/>
  <line x1="200" y1="60" x2="200" y2="240" stroke="#1e1e2e"/>
  <line x1="300" y1="60" x2="300" y2="240" stroke="#1e1e2e"/>
  <line x1="400" y1="60" x2="400" y2="240" stroke="#1e1e2e"/>
  <line x1="500" y1="60" x2="500" y2="240" stroke="#1e1e2e"/>
  <line x1="100" y1="105" x2="600" y2="105" stroke="#1e1e2e"/>
  <line x1="100" y1="150" x2="600" y2="150" stroke="#1e1e2e"/>
  <line x1="100" y1="195" x2="600" y2="195" stroke="#1e1e2e"/>

  <rect x="100" y="195" width="100" height="45" fill="rgba(107,203,119,0.12)"/>
  <rect x="200" y="150" width="100" height="90" fill="rgba(255,217,61,0.12)"/>
  <rect x="300" y="105" width="100" height="135" fill="rgba(255,159,67,0.14)"/>
  <rect x="400" y="60" width="200" height="180" fill="rgba(255,107,107,0.14)"/>

  <text x="145" y="86" fill="#6b6b8a" font-size="8">bajo</text>
  <text x="245" y="86" fill="#6b6b8a" font-size="8">medio-bajo</text>
  <text x="350" y="86" fill="#6b6b8a" font-size="8">medio</text>
  <text x="450" y="86" fill="#6b6b8a" font-size="8">alto</text>
  <text x="545" y="86" fill="#6b6b8a" font-size="8">critico</text>

  <text x="118" y="254" fill="#6b6b8a" font-size="8">muy baja</text>
  <text x="225" y="254" fill="#6b6b8a" font-size="8">baja</text>
  <text x="332" y="254" fill="#6b6b8a" font-size="8">media</text>
  <text x="438" y="254" fill="#6b6b8a" font-size="8">alta</text>
  <text x="530" y="254" fill="#6b6b8a" font-size="8">muy alta</text>

  <text x="350" y="286" text-anchor="middle" fill="#3a3a5a" font-size="8">La matriz ayuda a priorizar, pero siempre necesita contexto real del activo y sus controles.</text>
</svg>
