<svg viewBox="0 0 700 240" xmlns="http://www.w3.org/2000/svg" font-family="'JetBrains Mono', monospace">
  <rect width="700" height="240" fill="#0a0a0f"/>
  <text x="24" y="28" fill="#6b6b8a" font-size="10" letter-spacing="2">// MAPA DE ACTIVOS</text>

  <rect x="20" y="48" width="660" height="168" rx="4" fill="#12121a" stroke="#1e1e2e" stroke-width="1"/>

  <rect x="40" y="70" width="130" height="54" rx="4" fill="#0a0a0f" stroke="#ff6b6b" stroke-width="1.5"/>
  <text x="105" y="101" text-anchor="middle" fill="#ff6b6b" font-size="10" font-weight="700">DATOS</text>

  <rect x="190" y="70" width="130" height="54" rx="4" fill="#0a0a0f" stroke="#4d96ff" stroke-width="1.5"/>
  <text x="255" y="101" text-anchor="middle" fill="#4d96ff" font-size="10" font-weight="700">CUENTAS</text>

  <rect x="340" y="70" width="130" height="54" rx="4" fill="#0a0a0f" stroke="#6bcb77" stroke-width="1.5"/>
  <text x="405" y="101" text-anchor="middle" fill="#6bcb77" font-size="10" font-weight="700">SISTEMAS</text>

  <rect x="490" y="70" width="170" height="54" rx="4" fill="#0a0a0f" stroke="#ffd93d" stroke-width="1.5"/>
  <text x="575" y="101" text-anchor="middle" fill="#ffd93d" font-size="10" font-weight="700">PROCESOS</text>

  <rect x="100" y="146" width="150" height="44" rx="4" fill="#0a0a0f" stroke="#c77dff" stroke-width="1.5"/>
  <text x="175" y="173" text-anchor="middle" fill="#c77dff" font-size="10" font-weight="700">REPUTACION</text>

  <rect x="280" y="146" width="150" height="44" rx="4" fill="#0a0a0f" stroke="#00d1ff" stroke-width="1.5"/>
  <text x="355" y="173" text-anchor="middle" fill="#00d1ff" font-size="10" font-weight="700">BACKUPS</text>

  <rect x="460" y="146" width="150" height="44" rx="4" fill="#0a0a0f" stroke="#ff9f43" stroke-width="1.5"/>
  <text x="535" y="173" text-anchor="middle" fill="#ff9f43" font-size="10" font-weight="700">SERVICIOS</text>

  <text x="350" y="232" text-anchor="middle" fill="#3a3a5a" font-size="8">Los activos no son solo maquinas: tambien son accesos, procesos y capacidad de operar.</text>
</svg>
