<svg viewBox="0 0 660 180" xmlns="http://www.w3.org/2000/svg" font-family="'JetBrains Mono', monospace">
  <rect width="660" height="180" fill="#0a0a0f"/>

  <!-- BROWSER -->
  <rect x="20" y="30" width="130" height="100" rx="2" fill="#12121a" stroke="#00ff9f" stroke-width="1"/>
  <rect x="28" y="40" width="114" height="76" rx="1" fill="#0a0a0f" stroke="#1e1e2e" stroke-width="1"/>
  <rect x="28" y="40" width="114" height="14" rx="1 1 0 0" fill="#1e1e2e"/>
  <circle cx="35" cy="47" r="2.5" fill="#ff6b6b"/>
  <circle cx="43" cy="47" r="2.5" fill="#ffd93d"/>
  <circle cx="51" cy="47" r="2.5" fill="#6bcb77"/>
  <rect x="60" y="44" width="76" height="6" rx="1" fill="#0d0d18"/>
  <rect x="33" y="60" width="104" height="6" rx="1" fill="#00ff9f" opacity="0.15"/>
  <rect x="33" y="70" width="80" height="4" rx="1" fill="#1e1e2e"/>
  <rect x="33" y="78" width="96" height="4" rx="1" fill="#1e1e2e"/>
  <rect x="33" y="86" width="70" height="4" rx="1" fill="#1e1e2e"/>
  <rect x="33" y="96" width="88" height="4" rx="1" fill="#1e1e2e"/>
  <text x="85" y="148" text-anchor="middle" fill="#00ff9f" font-size="9" font-weight="700">BROWSER</text>
  <text x="85" y="162" text-anchor="middle" fill="#6b6b8a" font-size="8">Front End</text>

  <!-- arrows 1 -->
  <line x1="154" y1="72" x2="234" y2="72" stroke="#00ff9f" stroke-width="1.5" marker-end="url(#ga)"/>
  <text x="194" y="65" text-anchor="middle" fill="#00ff9f" font-size="8" font-weight="700">Request</text>
  <line x1="234" y1="88" x2="154" y2="88" stroke="#4d96ff" stroke-width="1.5" marker-end="url(#ba)"/>
  <text x="194" y="102" text-anchor="middle" fill="#4d96ff" font-size="8" font-weight="700">Response</text>

  <!-- INTERNET -->
  <rect x="240" y="30" width="170" height="100" rx="2" fill="#12121a" stroke="#4d96ff" stroke-width="1"/>
  <ellipse cx="325" cy="80" rx="40" ry="26" fill="none" stroke="#4d96ff" stroke-width="1.5"/>
  <ellipse cx="325" cy="80" rx="14" ry="26" fill="none" stroke="#4d96ff" stroke-width="1" opacity="0.5"/>
  <line x1="285" y1="80" x2="365" y2="80" stroke="#4d96ff" stroke-width="1" opacity="0.5"/>
  <line x1="288" y1="62" x2="362" y2="62" stroke="#4d96ff" stroke-width="1" opacity="0.3"/>
  <line x1="288" y1="98" x2="362" y2="98" stroke="#4d96ff" stroke-width="1" opacity="0.3"/>
  <text x="325" y="148" text-anchor="middle" fill="#4d96ff" font-size="9" font-weight="700">INTERNET</text>
  <text x="325" y="162" text-anchor="middle" fill="#6b6b8a" font-size="8">la red global</text>

  <!-- arrows 2 -->
  <line x1="414" y1="72" x2="494" y2="72" stroke="#00ff9f" stroke-width="1.5" marker-end="url(#ga)"/>
  <text x="454" y="65" text-anchor="middle" fill="#00ff9f" font-size="8" font-weight="700">Request</text>
  <line x1="494" y1="88" x2="414" y2="88" stroke="#4d96ff" stroke-width="1.5" marker-end="url(#ba)"/>
  <text x="454" y="102" text-anchor="middle" fill="#4d96ff" font-size="8" font-weight="700">Response</text>

  <!-- SERVER -->
  <rect x="500" y="30" width="140" height="100" rx="2" fill="#12121a" stroke="#ff9f43" stroke-width="1"/>
  <rect x="520" y="44" width="100" height="70" rx="1" fill="#0a0a0f" stroke="#ff9f43" stroke-width="1"/>
  <rect x="524" y="48" width="92" height="12" rx="1" fill="#ff9f43" opacity="0.15"/>
  <circle cx="609" cy="54" r="3" fill="#ff9f43"/>
  <rect x="524" y="64" width="92" height="12" rx="1" fill="#ff9f43" opacity="0.1"/>
  <circle cx="609" cy="70" r="3" fill="#ff9f43" opacity="0.6"/>
  <rect x="524" y="80" width="92" height="12" rx="1" fill="#ff9f43" opacity="0.08"/>
  <circle cx="609" cy="86" r="3" fill="#ff9f43" opacity="0.4"/>
  <rect x="524" y="96" width="92" height="8" rx="1" fill="#ff9f43" opacity="0.05"/>
  <text x="570" y="148" text-anchor="middle" fill="#ff9f43" font-size="9" font-weight="700">SERVER</text>
  <text x="570" y="162" text-anchor="middle" fill="#6b6b8a" font-size="8">Back End</text>

  <defs>
    <marker id="ga" markerWidth="7" markerHeight="7" refX="6" refY="3" orient="auto">
      <path d="M0,0 L0,6 L7,3 z" fill="#00ff9f"/>
    </marker>
    <marker id="ba" markerWidth="7" markerHeight="7" refX="6" refY="3" orient="auto">
      <path d="M0,0 L0,6 L7,3 z" fill="#4d96ff"/>
    </marker>
  </defs>
</svg>
