<svg viewBox="0 0 1020 510" xmlns="http://www.w3.org/2000/svg" font-family="'JetBrains Mono', monospace">
  <rect width="1020" height="510" fill="#0a0a0f"/>
  <defs>
    <pattern id="grid" width="40" height="40" patternUnits="userSpaceOnUse">
      <path d="M 40 0 L 0 0 0 40" fill="none" stroke="rgba(0,255,159,0.03)" stroke-width="1"/>
    </pattern>
  </defs>
  <rect width="1020" height="510" fill="url(#grid)"/>

  <!-- TITLE -->
  <text x="48" y="68" fill="#1a1a2a" font-size="62" font-weight="700">TIPOS DE PC</text>
  <text x="46" y="66" fill="#e8eaf0" font-size="62" font-weight="700">TIPOS DE PC</text>
  <text x="48" y="88" fill="#00ff9f" font-size="10" letter-spacing="4">LA HERRAMIENTA ADECUADA PARA CADA TAREA</text>
  <line x1="48" y1="98" x2="500" y2="98" stroke="#1e1e2e" stroke-width="1"/>

  <!-- LEFT TOP: devices with screens -->
  <text x="48" y="118" fill="#6b6b8a" font-size="9" letter-spacing="2">// DISPOSITIVOS CON PANTALLA</text>

  <!-- Laptop -->
  <rect x="48" y="128" width="100" height="72" rx="2" fill="#12121a" stroke="#00ff9f" stroke-width="1"/>
  <rect x="55" y="134" width="86" height="52" rx="1" fill="#0a0a0f" stroke="#00ff9f" stroke-width="1"/>
  <rect x="55" y="134" width="86" height="10" fill="#1e1e2e" rx="1 1 0 0"/>
  <circle cx="61" cy="139" r="1.5" fill="#ff6b6b"/>
  <circle cx="66" cy="139" r="1.5" fill="#ffd93d"/>
  <circle cx="71" cy="139" r="1.5" fill="#6bcb77"/>
  <rect x="60" y="149" width="76" height="5" rx="1" fill="#00ff9f" opacity="0.12"/>
  <rect x="60" y="158" width="50" height="4" rx="1" fill="#1e1e2e"/>
  <rect x="60" y="166" width="66" height="4" rx="1" fill="#1e1e2e"/>
  <rect x="48" y="188" width="100" height="6" rx="1" fill="#1e1e2e"/>
  <text x="98" y="212" text-anchor="middle" fill="#00ff9f" font-size="10" font-weight="700">PORTÁTIL</text>
  <text x="98" y="225" text-anchor="middle" fill="#6b6b8a" font-size="8">movilidad · batería</text>
  <text x="98" y="237" text-anchor="middle" fill="#3a3a5a" font-size="8">térmicamente limitado</text>

  <!-- Desktop -->
  <rect x="162" y="138" width="56" height="52" rx="2" fill="#12121a" stroke="#4d96ff" stroke-width="1"/>
  <rect x="167" y="143" width="46" height="36" rx="1" fill="#0a0a0f"/>
  <rect x="170" y="146" width="18" height="12" rx="1" fill="#4d96ff" opacity="0.15"/>
  <rect x="170" y="162" width="36" height="4" rx="1" fill="#1e1e2e"/>
  <rect x="170" y="170" width="28" height="4" rx="1" fill="#1e1e2e"/>
  <rect x="172" y="196" width="36" height="4" rx="1" fill="#1e1e2e"/>
  <text x="190" y="212" text-anchor="middle" fill="#4d96ff" font-size="10" font-weight="700">SOBREMESA</text>
  <text x="190" y="225" text-anchor="middle" fill="#6b6b8a" font-size="8">fijo · refrigeración</text>
  <text x="190" y="237" text-anchor="middle" fill="#3a3a5a" font-size="8">rendimiento sostenido</text>

  <!-- Workstation -->
  <rect x="272" y="138" width="60" height="52" rx="2" fill="#12121a" stroke="#ff9f43" stroke-width="1"/>
  <rect x="278" y="143" width="48" height="38" rx="1" fill="#0a0a0f"/>
  <rect x="281" y="147" width="20" height="14" rx="1" fill="#ff9f43" opacity="0.15"/>
  <rect x="305" y="147" width="16" height="14" rx="1" fill="#ff9f43" opacity="0.1"/>
  <rect x="281" y="165" width="40" height="5" rx="1" fill="#ff9f43" opacity="0.07"/>
  <rect x="281" y="174" width="32" height="5" rx="1" fill="#1e1e2e"/>
  <rect x="278" y="196" width="48" height="4" rx="1" fill="#1e1e2e"/>
  <text x="302" y="212" text-anchor="middle" fill="#ff9f43" font-size="10" font-weight="700">WORKSTATION</text>
  <text x="302" y="225" text-anchor="middle" fill="#6b6b8a" font-size="8">ECC RAM · precisión</text>
  <text x="302" y="237" text-anchor="middle" fill="#3a3a5a" font-size="8">tareas profesionales</text>

  <!-- Server -->
  <rect x="352" y="128" width="100" height="72" rx="2" fill="#12121a" stroke="#ff6b6b" stroke-width="1"/>
  <rect x="360" y="136" width="84" height="12" rx="1" fill="#0a0a0f" stroke="#ff6b6b" stroke-width="0.5" opacity="0.5"/>
  <circle cx="436" cy="142" r="3" fill="#ff6b6b"/>
  <rect x="360" y="152" width="84" height="12" rx="1" fill="#0a0a0f" stroke="#ff6b6b" stroke-width="0.5" opacity="0.5"/>
  <circle cx="436" cy="158" r="3" fill="#ff6b6b" opacity="0.6"/>
  <rect x="360" y="168" width="84" height="12" rx="1" fill="#0a0a0f" stroke="#ff6b6b" stroke-width="0.5" opacity="0.5"/>
  <circle cx="436" cy="174" r="3" fill="#ff6b6b" opacity="0.3"/>
  <text x="402" y="212" text-anchor="middle" fill="#ff6b6b" font-size="10" font-weight="700">SERVIDOR</text>
  <text x="402" y="225" text-anchor="middle" fill="#6b6b8a" font-size="8">sin pantalla · 24/7</text>
  <text x="402" y="237" text-anchor="middle" fill="#3a3a5a" font-size="8">redundancia · uptime</text>

  <!-- LEFT BOTTOM: hidden devices -->
  <text x="48" y="262" fill="#6b6b8a" font-size="9" letter-spacing="2">// DISPOSITIVOS OCULTOS / DE BOLSILLO</text>

  <!-- Smartphone -->
  <rect x="48" y="272" width="60" height="96" rx="6" fill="#12121a" stroke="#6bcb77" stroke-width="1.5"/>
  <rect x="53" y="280" width="50" height="76" rx="3" fill="#0a0a0f"/>
  <rect x="56" y="284" width="44" height="50" rx="2" fill="#0d0d18"/>
  <rect x="59" y="288" width="22" height="14" rx="1" fill="#6bcb77" opacity="0.15"/>
  <rect x="59" y="306" width="38" height="4" rx="1" fill="#1e1e2e"/>
  <rect x="59" y="314" width="28" height="4" rx="1" fill="#1e1e2e"/>
  <circle cx="78" cy="368" r="4" fill="#6bcb77" opacity="0.3"/>
  <text x="78" y="385" text-anchor="middle" fill="#6bcb77" font-size="10" font-weight="700">SMARTPHONE</text>
  <text x="78" y="398" text-anchor="middle" fill="#6b6b8a" font-size="8">ARM · batería · sensores</text>
  <text x="78" y="410" text-anchor="middle" fill="#3a3a5a" font-size="8">más atacado del mundo</text>

  <!-- IoT -->
  <rect x="162" y="280" width="80" height="80" rx="4" fill="#12121a" stroke="#ffd93d" stroke-width="1.5"/>
  <!-- wifi symbol -->
  <path d="M 202 310 Q 202 298 218 298 Q 234 298 234 310" fill="none" stroke="#ffd93d" stroke-width="1.5" opacity="0.4"/>
  <path d="M 202 320 Q 202 303 218 303 Q 234 303 234 320" fill="none" stroke="#ffd93d" stroke-width="1.5" opacity="0.25"/>
  <circle cx="218" cy="326" r="4" fill="#ffd93d" opacity="0.6"/>
  <text x="202" y="353" text-anchor="middle" fill="#ffd93d" font-size="10" font-weight="700">IoT</text>
  <text x="202" y="385" text-anchor="middle" fill="#ffd93d" font-size="10" font-weight="700">DISPOSITIVO</text>
  <text x="202" y="398" text-anchor="middle" fill="#6b6b8a" font-size="8">red · propósito único</text>
  <text x="202" y="410" text-anchor="middle" fill="#3a3a5a" font-size="8">Mirai botnet · default pw</text>

  <!-- Embedded -->
  <rect x="296" y="280" width="156" height="80" rx="4" fill="#12121a" stroke="#c77dff" stroke-width="1.5"/>
  <rect x="310" y="295" width="60" height="40" rx="2" fill="#0a0a0f" stroke="#c77dff" stroke-width="1" opacity="0.5"/>
  <!-- chip pins -->
  <line x1="310" y1="305" x2="302" y2="305" stroke="#c77dff" stroke-width="1" opacity="0.4"/>
  <line x1="310" y1="313" x2="302" y2="313" stroke="#c77dff" stroke-width="1" opacity="0.4"/>
  <line x1="310" y1="321" x2="302" y2="321" stroke="#c77dff" stroke-width="1" opacity="0.4"/>
  <line x1="370" y1="305" x2="378" y2="305" stroke="#c77dff" stroke-width="1" opacity="0.4"/>
  <line x1="370" y1="313" x2="378" y2="313" stroke="#c77dff" stroke-width="1" opacity="0.4"/>
  <line x1="370" y1="321" x2="378" y2="321" stroke="#c77dff" stroke-width="1" opacity="0.4"/>
  <rect x="318" y="303" width="44" height="26" rx="1" fill="#c77dff" opacity="0.08"/>
  <text x="340" y="320" text-anchor="middle" fill="#c77dff" font-size="8" opacity="0.6">CPU</text>
  <text x="400" y="315" fill="#c77dff" font-size="10" font-weight="700">EMBEBIDO</text>
  <text x="385" y="385" text-anchor="middle" fill="#c77dff" font-size="10" font-weight="700">SISTEMA EMBEBIDO</text>
  <text x="374" y="398" text-anchor="middle" fill="#6b6b8a" font-size="8">invisible · sin red · fiable</text>
  <text x="374" y="410" text-anchor="middle" fill="#3a3a5a" font-size="8">coches · aviones · puertas</text>

  <!-- tradeoffs bottom -->
  <text x="48" y="440" fill="#6b6b8a" font-size="9" letter-spacing="2">// COMPROMISOS DE DISEÑO</text>
  <rect x="48"  y="450" width="130" height="42" rx="2" fill="#12121a" stroke="#00ff9f" stroke-width="1"/>
  <text x="113" y="468" text-anchor="middle" fill="#00ff9f" font-size="9" font-weight="700">Movilidad</text>
  <text x="113" y="482" text-anchor="middle" fill="#6b6b8a" font-size="8">consume energía</text>

  <rect x="186" y="450" width="130" height="42" rx="2" fill="#12121a" stroke="#ff9f43" stroke-width="1"/>
  <text x="251" y="468" text-anchor="middle" fill="#ff9f43" font-size="9" font-weight="700">Fiabilidad</text>
  <text x="251" y="482" text-anchor="middle" fill="#6b6b8a" font-size="8">cuesta redundancia</text>

  <rect x="324" y="450" width="130" height="42" rx="2" fill="#12121a" stroke="#c77dff" stroke-width="1"/>
  <text x="389" y="468" text-anchor="middle" fill="#c77dff" font-size="9" font-weight="700">Tamaño</text>
  <text x="389" y="482" text-anchor="middle" fill="#6b6b8a" font-size="8">limita refrigeración</text>

  <!-- RIGHT divider -->
  <line x1="490" y1="30" x2="490" y2="490" stroke="#1e1e2e" stroke-width="1"/>

  <!-- RIGHT: comparison table -->
  <text x="516" y="48" fill="#6b6b8a" font-size="9" letter-spacing="2">// COMPARATIVA — IOT VS EMBEBIDO</text>
  <rect x="516" y="58" width="484" height="120" rx="2" fill="#12121a" stroke="#1e1e2e" stroke-width="1"/>
  <!-- headers -->
  <rect x="516" y="58" width="484" height="28" rx="2 2 0 0" fill="#1e1e2e"/>
  <text x="620" y="77" text-anchor="middle" fill="#ffd93d" font-size="10" font-weight="700">IoT</text>
  <text x="780" y="77" text-anchor="middle" fill="#c77dff" font-size="10" font-weight="700">EMBEBIDO</text>
  <!-- rows -->
  <text x="526" y="102" fill="#6b6b8a" font-size="10">Conectividad</text>
  <text x="620" y="102" text-anchor="middle" fill="#ffd93d" font-size="10">Conectado a red</text>
  <text x="780" y="102" text-anchor="middle" fill="#c77dff" font-size="10">Puede no conectarse</text>
  <line x1="526" y1="110" x2="990" y2="110" stroke="#1e1e2e" stroke-width="0.5"/>
  <text x="526" y="128" fill="#6b6b8a" font-size="10">Visibilidad</text>
  <text x="620" y="128" text-anchor="middle" fill="#ffd93d" font-size="10">Aparece en la red</text>
  <text x="780" y="128" text-anchor="middle" fill="#c77dff" font-size="10">Completamente invisible</text>
  <line x1="526" y1="136" x2="990" y2="136" stroke="#1e1e2e" stroke-width="0.5"/>
  <text x="526" y="154" fill="#6b6b8a" font-size="10">Ejemplo</text>
  <text x="620" y="154" text-anchor="middle" fill="#ffd93d" font-size="10">Termostato Nest</text>
  <text x="780" y="154" text-anchor="middle" fill="#c77dff" font-size="10">ABS del coche</text>

  <!-- attack vectors -->
  <text x="516" y="202" fill="#6b6b8a" font-size="9" letter-spacing="2">// VECTORES DE ATAQUE POR TIPO</text>
  <rect x="516" y="212" width="484" height="200" rx="2" fill="#12121a" stroke="#1e1e2e" stroke-width="1"/>
  <rect x="516" y="212" width="484" height="4" fill="#ff6b6b" opacity="0.6"/>

  <!-- rows -->
  <rect x="524" y="224" width="90" height="20" rx="2" fill="rgba(0,255,159,0.06)" stroke="#00ff9f" stroke-width="0.5"/>
  <text x="569" y="238" text-anchor="middle" fill="#00ff9f" font-size="9">Portátil/PC</text>
  <text x="630" y="238" fill="#6b6b8a" font-size="9">Malware, phishing, USB malicioso</text>

  <rect x="524" y="252" width="90" height="20" rx="2" fill="rgba(255,107,107,0.06)" stroke="#ff6b6b" stroke-width="0.5"/>
  <text x="569" y="266" text-anchor="middle" fill="#ff6b6b" font-size="9">Servidor</text>
  <text x="630" y="266" fill="#6b6b8a" font-size="9">RCE, SQLi, DDoS, exploits de servicios</text>

  <rect x="524" y="280" width="90" height="20" rx="2" fill="rgba(107,203,119,0.06)" stroke="#6bcb77" stroke-width="0.5"/>
  <text x="569" y="294" text-anchor="middle" fill="#6bcb77" font-size="9">Smartphone</text>
  <text x="630" y="294" fill="#6b6b8a" font-size="9">Apps maliciosas, MitM en WiFi, spyware</text>

  <rect x="524" y="308" width="90" height="20" rx="2" fill="rgba(255,217,61,0.06)" stroke="#ffd93d" stroke-width="0.5"/>
  <text x="569" y="322" text-anchor="middle" fill="#ffd93d" font-size="9">IoT</text>
  <text x="630" y="322" fill="#6b6b8a" font-size="9">Credenciales default, firmware sin parchear</text>

  <rect x="524" y="336" width="90" height="20" rx="2" fill="rgba(199,125,255,0.06)" stroke="#c77dff" stroke-width="0.5"/>
  <text x="569" y="350" text-anchor="middle" fill="#c77dff" font-size="9">Embebido</text>
  <text x="630" y="350" fill="#6b6b8a" font-size="9">Acceso físico, tampering, implantes HW</text>

  <rect x="516" y="364" width="484" height="40" rx="0 0 2 2" fill="rgba(255,107,107,0.04)"/>
  <text x="758" y="381" text-anchor="middle" fill="#ff6b6b" font-size="9" font-weight="700">⚠ Mirai (2016) — 600.000 dispositivos IoT comprometidos</text>
  <text x="758" y="396" text-anchor="middle" fill="#6b6b8a" font-size="8">tumbó Dyn DNS · inaccesible Twitter, Netflix, Reddit durante horas</text>

  <!-- quote -->
  <rect x="516" y="428" width="484" height="52" rx="2" fill="#12121a" stroke="#00ff9f" stroke-width="1"/>
  <rect x="516" y="428" width="4" height="52" fill="#00ff9f"/>
  <text x="530" y="450" fill="#e8eaf0" font-size="11" font-style="italic">"No existe el ordenador perfecto.</text>
  <text x="530" y="466" fill="#e8eaf0" font-size="11" font-style="italic">Solo existe la herramienta adecuada para cada tarea."</text>
</svg>
